<svg width="512" height="512" viewBox="0 0 512 512" fill="none" xmlns="http://www.w3.org/2000/svg">
<path d="M332.492 103.718C338.606 103.507 342.465 103.724 343.429 104.299C344.982 105.237 346.539 106.175 347.982 107.126C348.156 107.165 348.327 107.203 348.485 107.244C349.664 107.545 351.98 107.689 354.299 107.829C354.832 107.861 355.366 107.893 355.885 107.927C359.83 108.187 358.403 109.713 357.62 110.554C357.608 110.569 357.597 110.586 357.585 110.601C357.4 110.8 357.366 110.973 357.33 111.174C357.244 111.655 357.125 112.307 354.809 113.899C354.943 114.271 355.037 114.649 355.08 115.03C355.548 119.153 352.804 123.643 349.423 128.204C349.449 128.253 349.475 128.303 349.502 128.353C350.018 129.342 350.656 130.571 349.337 131.537C347.66 132.765 346.075 133.65 344.704 134.384C341.98 138.011 339.584 141.601 338.812 145.006C338.57 146.073 338.491 147.124 338.608 148.151C338.715 149.096 338.945 150.028 339.283 150.946C340.187 151.401 341.247 151.811 342.227 152.191C343.605 152.725 344.828 153.201 345.262 153.66C346.247 154.701 345.167 156.119 344.245 157.233C344.812 157.169 345.13 158.138 345.407 158.984C345.627 159.653 345.822 160.245 346.094 160.186C346.24 160.154 346.447 160.053 346.695 159.93C347.713 159.427 349.443 158.571 350.683 160.716C351.234 161.668 351.792 163.483 352.324 165.216C353.085 167.693 353.794 170.003 354.358 169.386C355.349 168.298 356.214 169.413 356.976 170.403C357.704 171.346 358.339 172.171 358.908 170.85C359.587 169.27 359.931 169.983 360.439 171.043C360.791 171.778 361.223 172.676 361.903 173.096C362.689 173.581 363.145 174.796 363.532 175.829C364.077 177.283 364.488 178.375 365.495 176.567C366.614 174.56 367.686 173.324 368.329 174.074C368.623 174.414 369.006 174.385 369.405 174.353C369.934 174.31 370.491 174.265 370.901 175.079C371.238 175.75 371.392 177.386 371.529 178.833C371.572 179.284 371.614 179.717 371.659 180.097C371.986 180.114 372.317 180.123 372.648 180.113C372.73 179.862 372.819 179.583 372.911 179.296C373.371 177.857 373.935 176.09 374.481 175.24C375.346 173.897 375.858 174.859 376.397 175.88C376.817 176.676 377.255 177.508 377.889 177.302C378.321 177.161 378.863 176.563 379.4 175.97C380.198 175.091 380.987 174.224 381.39 174.875C381.541 175.12 381.579 176.142 381.614 177.156C381.614 177.162 381.614 177.17 381.614 177.176C381.617 177.245 381.62 177.312 381.622 177.38C382.86 176.749 384.107 176.041 385.359 175.287C385.489 175.041 385.619 174.796 385.748 174.557C386.376 173.391 386.988 172.26 387.491 170.611C388.037 168.822 389.003 167.855 390.019 166.837C390.685 166.171 391.375 165.482 391.982 164.524C392.337 163.968 392.489 165.03 392.645 166.127C392.792 167.15 392.944 168.202 393.266 167.984C393.427 167.873 393.633 167.463 393.855 167.026C394.05 166.64 394.256 166.232 394.451 165.989C394.632 165.765 394.909 166.366 395.264 167.132C395.483 167.605 395.735 168.14 396.01 168.588C396.936 168.044 397.86 167.524 398.777 167.049C399.059 166.164 399.349 165.005 399.645 163.511C399.857 162.439 400.079 161.153 400.308 159.84C400.62 158.052 400.947 156.206 401.266 154.74C401.516 153.594 401.705 153.148 401.741 153.64C401.758 153.87 401.744 154.295 401.73 154.681C401.713 155.123 401.699 155.516 401.737 155.509C401.766 155.494 401.83 155.191 401.906 154.826C402.03 154.232 402.191 153.467 402.303 153.452C402.719 153.396 403.152 153.697 403.575 153.993C404.044 154.323 404.505 154.643 404.921 154.457C405.388 154.251 405.879 155.472 406.37 156.691C406.713 157.543 407.054 158.394 407.39 158.764C407.72 159.127 408.178 158.531 408.619 157.951C409.148 157.257 409.657 156.587 409.903 157.637C409.953 157.851 409.902 159.112 409.836 160.688C409.789 161.805 409.735 163.082 409.707 164.261C410.168 164.315 410.626 164.419 411.077 164.568C411.113 164.4 411.146 164.228 411.183 164.053L411.187 164.042C412.024 160.111 413.171 154.735 413.526 158.061C413.617 158.907 413.556 160.444 413.503 161.827C413.451 163.185 413.405 164.401 413.511 164.67C413.631 164.972 413.909 164.167 414.209 163.292C414.632 162.062 415.102 160.689 415.262 162.035C415.272 162.127 415.285 162.229 415.297 162.33C415.414 163.289 415.588 164.71 415.599 167.528C416.498 168.384 417.382 169.368 418.257 170.43C419.715 172.201 421.151 174.191 422.583 176.182C423.279 177.162 423.605 181.037 423.47 187.161C423.335 193.295 422.752 201.134 421.821 209.201C420.891 217.267 419.674 225.026 418.41 231.029C417.147 237.023 415.946 240.721 415.046 241.517C413.579 242.796 412.11 244.077 410.657 245.247C410.57 245.406 410.483 245.559 410.398 245.702C409.76 246.774 409.027 248.992 408.293 251.211C408.125 251.721 407.954 252.231 407.787 252.727C406.515 256.497 405.105 254.736 404.328 253.767C404.314 253.752 404.299 253.736 404.285 253.72C404.101 253.491 403.908 253.412 403.685 253.328C403.151 253.126 402.43 252.851 401.164 250.21C400.703 250.249 400.245 250.246 399.794 250.194C394.922 249.632 390.42 245.854 385.991 241.442C385.927 241.455 385.861 241.468 385.795 241.481C384.528 241.739 382.957 242.057 382.168 240.539C381.164 238.606 380.534 236.846 380.024 235.332C376.511 231.788 372.959 228.571 369.221 226.98C368.05 226.482 366.86 226.147 365.648 226.007C364.532 225.878 363.399 225.874 362.256 225.975C361.509 226.741 360.773 227.668 360.093 228.527C359.138 229.735 358.288 230.81 357.652 231.119C357.366 231.258 357.082 231.311 356.804 231.304C357.184 232.663 357.547 234.266 356.215 235.297C354.41 236.694 352.733 237.643 351.288 238.422C348.171 242.888 345.385 247.354 344.233 251.82C343.873 253.22 343.676 254.621 343.676 256.021C343.676 257.31 343.801 258.6 344.033 259.889C344.88 260.639 345.885 261.352 346.817 262.013C348.126 262.943 349.291 263.772 349.671 264.456C350.584 266.103 349.141 267.972 348.069 269.36C347.894 269.587 347.725 269.802 347.582 270C348.113 271.102 348.682 272.204 349.262 273.306C348.939 273.38 348.602 273.455 348.257 273.53C343.946 274.471 344 275.628 344.08 277.449C344.082 277.496 344.082 277.545 344.084 277.594C344.127 277.651 344.175 277.708 344.218 277.771C344.819 278.653 345.518 280.394 346.184 282.054C347.138 284.429 348.028 286.641 348.477 285.961C349.265 284.77 350.168 285.781 350.966 286.676C351.728 287.53 352.397 288.274 352.776 286.896C353.229 285.248 353.615 285.921 354.189 286.915C354.587 287.605 355.076 288.446 355.74 288.785C356.506 289.176 357.049 290.332 357.51 291.313C358.159 292.694 358.647 293.733 359.375 291.824C360.183 289.7 361.03 288.349 361.695 289.02C361.998 289.324 362.344 289.251 362.704 289.173C363.182 289.07 363.686 288.961 364.145 289.723C364.523 290.351 364.834 291.961 365.11 293.383C365.196 293.825 365.278 294.248 365.358 294.619C365.658 294.599 365.96 294.569 366.261 294.521C366.309 294.263 366.36 293.976 366.414 293.681C366.682 292.198 367.014 290.378 367.423 289.472C368.069 288.038 368.638 288.935 369.236 289.888C369.702 290.63 370.185 291.405 370.74 291.129C371.119 290.939 371.553 290.283 371.98 289.633C372.616 288.667 373.244 287.714 373.68 288.317C373.844 288.544 373.981 289.555 374.12 290.559C374.12 290.565 374.123 290.57 374.124 290.575C374.133 290.643 374.142 290.711 374.151 290.779C375.213 290.01 376.277 289.163 377.339 288.27C377.431 288.011 377.522 287.756 377.614 287.504C378.064 286.274 378.502 285.078 378.788 283.382C379.097 281.542 379.873 280.469 380.692 279.341C381.228 278.603 381.782 277.84 382.234 276.82C382.499 276.224 382.753 277.264 383.012 278.336C383.253 279.336 383.499 280.363 383.769 280.111C383.905 279.983 384.053 279.55 384.209 279.09C384.346 278.686 384.489 278.257 384.641 277.994C384.782 277.751 385.097 278.315 385.501 279.035C385.75 279.48 386.035 279.984 386.333 280.397C387.119 279.75 387.906 279.129 388.692 278.552C388.856 277.641 389 276.458 389.112 274.939C389.193 273.85 389.261 272.545 389.332 271.213C389.428 269.401 389.529 267.527 389.666 266.034C389.773 264.869 389.899 264.404 389.984 264.887C390.023 265.113 390.054 265.539 390.082 265.924C390.113 266.364 390.142 266.758 390.176 266.749C390.201 266.74 390.227 266.424 390.259 266.046C390.309 265.444 390.375 264.668 390.475 264.636C390.848 264.533 391.275 264.783 391.691 265.029C392.153 265.302 392.604 265.567 392.963 265.335C393.367 265.074 393.946 266.236 394.522 267.393C394.923 268.197 395.324 268.998 395.668 269.328C396.006 269.651 396.36 269.012 396.701 268.386C397.11 267.635 397.504 266.909 397.839 267.927C397.907 268.137 397.993 269.392 398.098 270.962C398.173 272.077 398.259 273.352 398.357 274.527C398.783 274.527 399.208 274.577 399.633 274.672C399.648 274.503 399.665 274.33 399.68 274.154C399.681 274.15 399.68 274.143 399.68 274.138C400.03 270.138 400.511 264.667 401.184 267.931C401.355 268.76 401.464 270.293 401.561 271.673C401.656 273.026 401.739 274.239 401.863 274.496C402.005 274.784 402.172 273.952 402.354 273.047C402.61 271.777 402.895 270.359 403.182 271.68C403.202 271.77 403.223 271.868 403.245 271.967C403.453 272.907 403.763 274.301 404.069 277.099C404.977 277.846 405.886 278.72 406.794 279.675C408.308 281.267 409.822 283.083 411.336 284.897C412.072 285.791 412.782 289.6 413.303 295.699C413.824 301.808 414.115 309.661 414.115 317.782C414.115 325.902 413.824 333.749 413.303 339.857C412.782 345.958 412.072 349.766 411.336 350.659C410.134 352.099 408.933 353.54 407.732 354.869C407.669 355.037 407.607 355.203 407.544 355.355C407.075 356.494 406.64 358.777 406.205 361.065C406.105 361.59 406.007 362.119 405.907 362.631C405.143 366.522 403.669 364.933 402.86 364.061C402.846 364.047 402.832 364.032 402.817 364.017C402.625 363.811 402.444 363.758 402.232 363.699C401.724 363.56 401.037 363.369 399.606 360.888C399.19 360.979 398.773 361.029 398.357 361.029C393.86 361.029 389.362 357.793 384.865 353.918C384.808 353.938 384.75 353.96 384.692 353.981C383.564 354.383 382.163 354.878 381.284 353.459C380.167 351.653 379.407 349.977 378.784 348.531C375.212 345.413 371.639 342.627 368.066 341.475C366.948 341.115 365.829 340.918 364.71 340.917C363.679 340.917 362.647 341.043 361.617 341.275C361.016 342.122 360.442 343.127 359.913 344.059C359.169 345.368 358.509 346.534 357.962 346.913C356.644 347.827 355.15 346.383 354.04 345.311C353.858 345.136 353.684 344.968 353.526 344.824C352.644 345.356 351.761 345.924 350.88 346.505C350.821 346.182 350.763 345.845 350.703 345.5C350.51 344.394 350.304 343.576 350.083 342.971C347.853 343.85 345.897 344.659 346.542 345.076C347.734 345.848 346.722 346.732 345.827 347.514C344.974 348.26 344.23 348.914 345.607 349.285C347.255 349.729 346.582 350.109 345.588 350.671C344.898 351.061 344.058 351.541 343.719 352.191C343.327 352.941 342.172 353.471 341.191 353.922C339.81 354.558 338.772 355.036 340.681 355.748C342.804 356.54 344.154 357.37 343.484 358.022C343.179 358.318 343.253 358.658 343.33 359.011C343.434 359.479 343.542 359.972 342.781 360.421C342.153 360.791 340.544 361.096 339.122 361.367C338.68 361.451 338.257 361.532 337.886 361.61C337.906 361.905 337.936 362.199 337.984 362.494C338.242 362.542 338.528 362.595 338.824 362.647C340.306 362.91 342.126 363.233 343.032 363.633C344.464 364.266 343.569 364.822 342.616 365.407C341.874 365.864 341.098 366.339 341.375 366.884C341.566 367.255 342.221 367.679 342.871 368.097C343.836 368.719 344.787 369.331 344.186 369.758C343.96 369.918 342.948 370.058 341.945 370.194C341.94 370.194 341.934 370.193 341.929 370.194C341.861 370.203 341.793 370.212 341.725 370.221C342.494 371.261 343.341 372.303 344.233 373.343C344.492 373.433 344.748 373.524 344.999 373.614C346.229 374.055 347.425 374.481 349.121 374.761C350.96 375.063 352.033 375.827 353.161 376.63C353.898 377.154 354.661 377.698 355.681 378.141C356.274 378.4 355.236 378.646 354.165 378.899C353.166 379.135 352.139 379.377 352.391 379.641C352.518 379.774 352.951 379.916 353.412 380.069C353.817 380.204 354.244 380.348 354.507 380.497C354.751 380.636 354.186 380.942 353.467 381.338C353.022 381.582 352.518 381.859 352.104 382.15C352.752 382.921 353.372 383.693 353.95 384.463C354.861 384.624 356.043 384.765 357.561 384.875C358.651 384.955 359.955 385.022 361.287 385.091C363.098 385.186 364.972 385.283 366.465 385.417C367.63 385.522 368.094 385.644 367.611 385.727C367.385 385.766 366.959 385.795 366.575 385.822C366.135 385.853 365.742 385.882 365.75 385.916C365.759 385.94 366.075 385.967 366.453 385.998C367.056 386.048 367.835 386.112 367.862 386.21C367.965 386.576 367.716 386.993 367.47 387.4C367.196 387.853 366.931 388.296 367.164 388.649C367.421 389.044 366.262 389.609 365.106 390.172C364.302 390.565 363.501 390.958 363.171 391.295C362.848 391.627 363.487 391.974 364.113 392.308C364.865 392.71 365.59 393.096 364.573 393.424C364.361 393.49 363.106 393.572 361.538 393.675C360.423 393.748 359.148 393.83 357.973 393.926C357.973 394.343 357.924 394.762 357.828 395.179C357.998 395.193 358.17 395.211 358.346 395.226C358.35 395.226 358.358 395.226 358.362 395.226C362.362 395.569 367.832 396.039 364.569 396.698C363.739 396.866 362.206 396.968 360.827 397.063C359.474 397.157 358.261 397.24 358.005 397.362C357.716 397.501 358.549 397.666 359.453 397.845C360.723 398.095 362.14 398.373 360.82 398.654C360.73 398.673 360.632 398.695 360.533 398.717C359.593 398.92 358.2 399.222 355.402 399.521C354.655 400.411 353.781 401.302 352.827 402.192C351.235 403.675 349.419 405.157 347.606 406.64C346.711 407.362 342.903 408.054 336.806 408.564C330.698 409.075 322.847 409.361 314.728 409.361C306.61 409.361 298.764 409.075 292.657 408.564C286.559 408.054 282.751 407.362 281.858 406.64C280.419 405.464 278.977 404.287 277.649 403.11C277.481 403.049 277.315 402.987 277.162 402.926C276.025 402.467 273.741 402.04 271.454 401.614C270.929 401.516 270.4 401.418 269.888 401.32C265.998 400.572 267.586 399.132 268.459 398.34C268.473 398.325 268.488 398.311 268.502 398.296C268.709 398.109 268.762 397.931 268.82 397.723C268.96 397.226 269.151 396.553 271.631 395.151C271.54 394.743 271.49 394.334 271.49 393.926C271.49 389.522 274.726 385.118 278.599 380.713C278.579 380.658 278.557 380.601 278.536 380.544C278.135 379.44 277.639 378.068 279.059 377.207C280.864 376.112 282.54 375.371 283.985 374.761C287.102 371.262 289.888 367.763 291.04 364.265C291.401 363.169 291.597 362.071 291.597 360.974C291.597 360.958 291.593 360.94 291.593 360.923C285.446 360.358 279.298 357.401 273.15 353.918C273.064 353.938 272.976 353.96 272.887 353.981C271.172 354.383 269.042 354.879 267.705 353.459C266.006 351.654 264.853 349.977 263.905 348.531C258.472 345.413 253.039 342.627 247.606 341.475C245.903 341.114 244.201 340.918 242.498 340.917C240.93 340.917 239.359 341.043 237.791 341.275C236.879 342.121 236.013 343.127 235.208 344.059C234.077 345.369 233.068 346.534 232.236 346.913C230.232 347.828 227.958 346.384 226.269 345.311C225.993 345.136 225.733 344.968 225.492 344.824C224.151 345.356 222.809 345.924 221.468 346.505C221.379 346.182 221.289 345.845 221.197 345.5C220.053 341.187 218.646 341.242 216.431 341.322C215.467 341.357 214.348 341.394 213.032 341.082C212.185 340.88 211.75 339.171 211.395 337.776C211.29 337.366 211.192 336.983 211.092 336.673C210.752 335.611 210.39 336.758 209.966 338.114C209.502 339.597 208.967 341.325 208.286 340.69C208.198 340.76 208.107 340.836 208.003 340.906C207.121 341.495 205.38 342.177 203.72 342.83C203.19 343.038 202.668 343.244 202.185 343.442V343.446C201.85 344.056 201.458 344.164 201.05 343.945C200.013 344.424 199.416 344.818 199.814 345.076C201.006 345.848 199.994 346.732 199.099 347.514C198.246 348.26 197.502 348.914 198.88 349.285C200.527 349.729 199.854 350.109 198.86 350.671C198.17 351.061 197.33 351.541 196.991 352.191C196.599 352.941 195.444 353.471 194.463 353.922C193.082 354.558 192.044 355.036 193.953 355.748C196.076 356.54 197.426 357.37 196.756 358.022C196.452 358.318 196.525 358.658 196.603 359.011C196.706 359.479 196.815 359.972 196.053 360.421C195.425 360.791 193.816 361.096 192.394 361.367C191.952 361.451 191.529 361.532 191.158 361.61C191.178 361.905 191.208 362.199 191.256 362.494C191.514 362.542 191.801 362.595 192.096 362.647C193.579 362.91 195.398 363.233 196.304 363.633C197.737 364.266 196.841 364.822 195.888 365.407C195.146 365.864 194.37 366.339 194.648 366.884C194.838 367.255 195.494 367.679 196.143 368.097C197.108 368.719 198.059 369.331 197.458 369.758C197.232 369.918 196.22 370.058 195.217 370.194C195.212 370.194 195.206 370.193 195.201 370.194C195.133 370.203 195.065 370.212 194.997 370.221C195.766 371.261 196.613 372.303 197.506 373.343C197.764 373.433 198.02 373.524 198.271 373.614C199.501 374.055 200.697 374.481 202.393 374.761C204.232 375.063 205.305 375.827 206.433 376.63C207.17 377.154 207.934 377.698 208.953 378.141C209.546 378.4 208.508 378.646 207.438 378.899C206.438 379.135 205.411 379.377 205.663 379.641C205.791 379.774 206.223 379.916 206.684 380.069C207.089 380.204 207.516 380.348 207.779 380.497C208.023 380.636 207.459 380.942 206.739 381.338C206.294 381.582 205.79 381.859 205.377 382.15C206.024 382.921 206.644 383.693 207.222 384.463C208.133 384.624 209.316 384.765 210.833 384.875C211.923 384.955 213.227 385.022 214.559 385.091C216.371 385.186 218.244 385.283 219.737 385.417C220.902 385.522 221.366 385.644 220.883 385.727C220.658 385.766 220.232 385.795 219.847 385.822C219.407 385.853 219.014 385.882 219.022 385.916C219.031 385.94 219.347 385.967 219.725 385.998C220.329 386.048 221.107 386.112 221.134 386.21C221.237 386.576 220.988 386.993 220.742 387.4C220.468 387.853 220.203 388.296 220.436 388.649C220.694 389.044 219.534 389.609 218.379 390.172C217.574 390.565 216.773 390.958 216.443 391.295C216.121 391.627 216.76 391.974 217.385 392.308C218.137 392.71 218.862 393.096 217.845 393.424C217.633 393.49 216.378 393.572 214.81 393.675C213.696 393.748 212.42 393.83 211.246 393.926C211.246 394.343 211.196 394.762 211.1 395.179C211.27 395.193 211.442 395.211 211.619 395.226C211.623 395.226 211.63 395.226 211.634 395.226C215.634 395.569 221.104 396.039 217.841 396.698C217.011 396.866 215.479 396.968 214.1 397.063C212.746 397.157 211.533 397.24 211.277 397.362C210.988 397.501 211.821 397.666 212.726 397.845C213.995 398.095 215.413 398.373 214.092 398.654C214.002 398.673 213.904 398.695 213.805 398.717C212.865 398.92 211.472 399.222 208.674 399.521C207.927 400.411 207.054 401.302 206.099 402.192C204.508 403.675 202.691 405.157 200.878 406.64C199.983 407.362 196.175 408.054 190.078 408.564C183.97 409.075 176.119 409.361 168 409.361C159.882 409.361 152.036 409.075 145.929 408.564C139.832 408.054 136.023 407.362 135.13 406.64C133.691 405.464 132.249 404.287 130.921 403.11C130.753 403.049 130.587 402.987 130.435 402.926C129.297 402.467 127.014 402.04 124.727 401.614C124.201 401.516 123.672 401.418 123.16 401.32C119.271 400.572 120.859 399.132 121.731 398.34C121.746 398.325 121.76 398.311 121.774 398.296C121.981 398.109 122.034 397.931 122.092 397.723C122.232 397.226 122.423 396.553 124.903 395.151C124.812 394.743 124.762 394.334 124.762 393.926C124.763 389.522 127.998 385.118 131.871 380.713C131.851 380.658 131.829 380.601 131.809 380.544C131.407 379.44 130.911 378.068 132.331 377.207C134.136 376.112 135.812 375.371 137.257 374.761C140.375 371.262 143.161 367.763 144.312 364.265C144.673 363.169 144.869 362.071 144.869 360.974C144.869 359.965 144.744 358.953 144.512 357.943C143.666 357.355 142.66 356.796 141.729 356.278C140.419 355.55 139.254 354.902 138.875 354.366C137.961 353.075 139.405 351.609 140.477 350.522C140.652 350.344 140.82 350.178 140.963 350.023C140.432 349.16 139.864 348.295 139.283 347.432C139.606 347.374 139.943 347.314 140.288 347.255C144.599 346.518 144.545 345.614 144.465 344.188C144.461 344.114 144.457 344.038 144.453 343.961C143.808 344.864 143.084 343.915 142.439 343.069C141.789 342.216 141.22 341.472 140.897 342.849C140.51 344.497 140.178 343.824 139.688 342.83C139.348 342.141 138.931 341.3 138.365 340.961C137.709 340.569 137.243 339.414 136.849 338.432C136.295 337.051 135.881 336.013 135.259 337.922C134.569 340.045 133.845 341.396 133.277 340.725C133.018 340.421 132.721 340.494 132.413 340.572C132.005 340.675 131.576 340.783 131.184 340.022C130.862 339.394 130.596 337.785 130.36 336.363C130.286 335.92 130.216 335.497 130.148 335.126C129.891 335.146 129.632 335.176 129.375 335.224C129.333 335.482 129.291 335.769 129.245 336.064C129.016 337.547 128.734 339.367 128.385 340.274C127.833 341.707 127.346 340.81 126.835 339.857C126.437 339.115 126.022 338.339 125.547 338.617C125.224 338.807 124.856 339.463 124.491 340.113C123.949 341.078 123.411 342.031 123.039 341.428C122.899 341.201 122.78 340.19 122.662 339.186C122.661 339.181 122.658 339.175 122.658 339.17C122.65 339.102 122.642 339.034 122.634 338.966C121.727 339.735 120.82 340.582 119.914 341.475C119.835 341.734 119.757 341.989 119.678 342.241C119.294 343.471 118.921 344.667 118.677 346.364C118.413 348.203 117.747 349.276 117.048 350.404C116.59 351.142 116.115 351.905 115.729 352.925C115.503 353.518 115.29 352.48 115.069 351.409C114.864 350.41 114.652 349.384 114.422 349.634C114.306 349.762 114.178 350.195 114.045 350.655C113.928 351.06 113.805 351.488 113.676 351.751C113.555 351.994 113.286 351.43 112.942 350.71C112.729 350.265 112.485 349.762 112.231 349.348C111.559 349.996 110.885 350.616 110.213 351.193C110.073 352.105 109.952 353.288 109.856 354.806C109.787 355.896 109.728 357.2 109.668 358.532C109.585 360.344 109.502 362.218 109.385 363.711C109.293 364.877 109.183 365.342 109.11 364.858C109.076 364.632 109.051 364.206 109.028 363.821C109.001 363.385 108.978 362.995 108.949 362.997C108.928 363.005 108.906 363.321 108.878 363.699C108.835 364.3 108.779 365.074 108.694 365.109C108.375 365.212 108.009 364.963 107.654 364.716C107.259 364.443 106.874 364.177 106.566 364.41C106.221 364.671 105.731 363.509 105.239 362.353C104.896 361.546 104.549 360.746 104.254 360.417C103.965 360.094 103.666 360.733 103.375 361.359C103.025 362.111 102.687 362.836 102.401 361.819C102.343 361.607 102.271 360.352 102.181 358.783C102.117 357.668 102.045 356.393 101.961 355.218C101.598 355.218 101.233 355.168 100.87 355.073C100.857 355.242 100.844 355.415 100.831 355.591C100.83 355.595 100.831 355.603 100.831 355.607C100.532 359.607 100.122 365.077 99.547 361.815C99.4009 360.985 99.3079 359.452 99.2251 358.073C99.1438 356.719 99.0723 355.506 98.966 355.249C98.845 354.961 98.7016 355.794 98.5459 356.698C98.3274 357.968 98.0803 359.386 97.8354 358.065C97.8188 357.975 97.8029 357.877 97.7843 357.778C97.6068 356.838 97.3432 355.445 97.0816 352.646C96.3059 351.899 95.5294 351.025 94.7537 350.07C93.4602 348.478 92.1645 346.662 90.8711 344.848C90.2424 343.951 89.6395 340.142 89.1949 334.046C88.7498 327.937 88.5 320.084 88.5 311.963C88.5001 303.843 88.7499 295.996 89.1949 289.888C89.6396 283.791 90.2423 279.982 90.8711 279.086C91.8973 277.647 92.9266 276.205 93.9528 274.877C94.0066 274.708 94.06 274.543 94.1138 274.39C94.5136 273.252 94.8849 270.968 95.2562 268.681C95.3415 268.155 95.4256 267.626 95.5113 267.114C96.1631 263.223 97.4228 264.812 98.1141 265.685C98.1264 265.698 98.1371 265.714 98.1494 265.728C98.3135 265.934 98.4701 265.987 98.6519 266.046C99.0855 266.185 99.6709 266.377 100.894 268.857C101.249 268.766 101.606 268.716 101.961 268.716C105.803 268.716 109.646 271.952 113.487 275.827C113.535 275.807 113.583 275.785 113.632 275.764C114.596 275.363 115.791 274.868 116.541 276.286C117.496 278.092 118.145 279.768 118.677 281.214C121.655 284.257 124.634 286.98 127.612 288.18C128.806 286.106 130.284 284.03 131.871 281.956C131.852 281.893 131.829 281.829 131.809 281.764C131.407 280.495 130.912 278.921 132.331 277.931C134.136 276.674 135.812 275.818 137.257 275.116C140.375 271.097 143.161 267.077 144.312 263.058C144.673 261.798 144.869 260.536 144.869 259.276C144.869 258.117 144.744 256.957 144.512 255.797C143.666 255.122 142.66 254.481 141.729 253.885C140.419 253.048 139.254 252.302 138.875 251.686C137.961 250.204 139.405 248.522 140.477 247.273C140.652 247.069 140.82 246.874 140.963 246.696C140.432 245.704 139.864 244.711 139.283 243.719C139.606 243.653 139.943 243.587 140.288 243.519C140.958 243.388 141.521 243.245 141.996 243.103C141.489 241.977 141.083 240.924 140.732 239.969C137.68 236.852 134.628 234.065 131.577 232.913C130.621 232.553 129.664 232.356 128.707 232.356C127.827 232.356 126.946 232.481 126.065 232.713C125.553 233.56 125.065 234.565 124.613 235.497C123.977 236.807 123.412 237.972 122.944 238.352C121.819 239.265 120.54 237.822 119.592 236.75C119.437 236.574 119.291 236.406 119.156 236.263C118.403 236.794 117.648 237.362 116.895 237.943C116.845 237.621 116.797 237.283 116.746 236.938C116.103 232.626 115.311 232.68 114.068 232.76C113.527 232.795 112.899 232.832 112.16 232.521C111.684 232.32 111.438 230.61 111.238 229.215C111.179 228.805 111.125 228.421 111.069 228.111C110.878 227.049 110.675 228.196 110.437 229.552C110.128 231.311 109.757 233.424 109.267 231.516C107.706 225.433 107.02 229.56 106.499 232.682C106.347 233.597 106.209 234.425 106.068 234.885C105.608 236.374 104.953 234.896 104.458 232.87C104.066 231.265 103.282 232.859 102.688 234.885C102.463 235.649 102.158 235.667 101.8 235.686C101.43 235.705 100.999 235.725 100.54 236.585C99.3809 238.756 98.7626 239.81 98.2672 240.653C98.1264 240.892 97.9939 241.112 97.8629 241.34C97.4477 242.06 96.9317 242.653 96.4103 243.252C95.7859 243.969 95.1534 244.699 94.6712 245.671C93.4212 244.642 92.1721 243.367 90.9222 242.098C90.2802 241.439 89.6645 237.726 89.2106 231.606C88.7567 225.481 88.5001 217.496 88.5 209.221C88.5 200.944 88.7567 192.956 89.2106 186.831C89.6645 180.712 90.2803 176.996 90.9222 176.336C92.2152 175.022 93.5077 173.707 94.8008 172.66C96.3761 171.386 97.9521 170.505 99.5274 170.505C100.63 170.505 101.734 170.704 102.837 171.058C102.949 171.094 103.062 171.133 103.174 171.172C104.1 169.135 105.028 167.282 105.679 166.621C106.216 166.078 106.608 167.164 106.943 168.094C107.174 168.733 107.376 169.297 107.583 169.209C107.694 169.161 107.848 169.038 108.03 168.887C108.777 168.27 110.045 167.223 111.202 169.209C111.716 170.091 112.313 171.832 112.883 173.493C113.697 175.867 114.458 178.079 114.842 177.4C115.515 176.207 116.287 177.219 116.969 178.114C117.62 178.968 118.188 179.712 118.512 178.334C118.899 176.686 119.231 177.359 119.721 178.354C120.061 179.043 120.478 179.884 121.044 180.223C121.699 180.614 122.166 181.77 122.56 182.752C123.114 184.133 123.528 185.171 124.149 183.262C124.84 181.139 125.564 179.788 126.132 180.458C126.391 180.763 126.688 180.689 126.996 180.612C127.347 180.523 127.714 180.43 128.06 180.894C129.167 179.208 130.477 177.519 131.871 175.833C131.851 175.774 131.829 175.713 131.809 175.652C131.407 174.478 130.913 173.022 132.331 172.107C134.136 170.942 135.812 170.149 137.257 169.499C140.374 165.778 143.161 162.057 144.312 158.336C144.673 157.17 144.869 156 144.869 154.834C144.869 153.76 144.744 152.684 144.512 151.61C143.666 150.985 142.66 150.39 141.729 149.839C140.419 149.064 139.254 148.375 138.875 147.805C137.961 146.432 139.405 144.874 140.477 143.718C140.652 143.529 140.82 143.349 140.963 143.184C140.432 142.265 139.864 141.346 139.283 140.427C139.606 140.366 139.943 140.305 140.288 140.243C144.6 139.459 144.545 138.493 144.465 136.976C144.43 136.316 144.393 135.551 144.705 134.651C144.906 134.07 146.615 133.768 148.01 133.524C148.42 133.453 148.803 133.388 149.113 133.32C150.175 133.087 149.028 132.841 147.672 132.55C145.914 132.173 143.801 131.719 145.71 131.121C151.791 129.217 147.665 128.379 144.544 127.744C143.628 127.558 142.801 127.391 142.341 127.218C140.853 126.658 142.33 125.858 144.355 125.255C145.959 124.777 144.367 123.821 142.341 123.095C141.576 122.821 141.559 122.448 141.54 122.012C141.522 121.56 141.5 121.036 140.641 120.476C138.471 119.062 137.417 118.312 136.574 117.708C136.334 117.536 136.115 117.374 135.887 117.213C135.167 116.707 134.574 116.078 133.976 115.442C133.259 114.681 132.529 113.906 131.557 113.318C132.586 111.793 133.86 110.268 135.13 108.744C135.79 107.961 139.502 107.208 145.619 106.655C151.742 106.101 159.726 105.791 168 105.791C176.275 105.791 184.26 106.101 190.384 106.655C196.5 107.208 200.216 107.961 200.878 108.744C202.191 110.321 203.506 111.901 204.552 113.479C205.827 115.401 206.707 117.322 206.707 119.243C206.707 120.588 206.509 121.932 206.154 123.276C206.117 123.414 206.08 123.554 206.04 123.692C208.077 124.821 209.93 125.949 210.59 126.743C211.135 127.399 210.048 127.877 209.118 128.286C208.478 128.568 207.913 128.819 208.003 129.072C208.052 129.207 208.175 129.392 208.325 129.613C208.941 130.525 209.99 132.073 208.003 133.485C207.121 134.112 205.38 134.84 203.72 135.535C201.346 136.528 199.134 137.454 199.814 137.922C201.006 138.743 199.994 139.685 199.099 140.517C198.246 141.311 197.502 142.007 198.88 142.402C200.527 142.874 199.854 143.277 198.86 143.875C198.171 144.289 197.33 144.797 196.991 145.489C196.6 146.288 195.445 146.854 194.463 147.334C193.082 148.01 192.043 148.52 193.953 149.278C196.076 150.12 197.426 150.999 196.756 151.692C196.451 152.008 196.525 152.37 196.603 152.745C196.706 153.242 196.814 153.767 196.053 154.245C195.425 154.639 193.816 154.966 192.394 155.254C191.952 155.344 191.529 155.43 191.158 155.513C191.178 155.826 191.208 156.139 191.256 156.451C191.514 156.502 191.801 156.557 192.096 156.612C193.579 156.892 195.398 157.235 196.304 157.661C196.996 157.986 197.141 158.292 197.003 158.591C201.989 159.354 207.082 161.38 212.2 163.739C212.283 163.712 212.369 163.684 212.455 163.657C214.137 163.115 216.227 162.446 217.68 163.751C219.527 165.41 220.818 166.986 221.884 168.349C227.572 171.01 233.234 173.338 238.761 174.039C240.493 174.258 242.213 174.316 243.915 174.176C245.483 174.047 247.042 173.794 248.591 173.434C249.434 172.515 250.222 171.441 250.95 170.446C251.974 169.048 252.886 167.806 253.687 167.359C255.616 166.284 258.007 167.533 259.783 168.463C260.073 168.615 260.347 168.76 260.6 168.883C261.897 168.243 263.193 167.566 264.486 166.877C264.602 167.191 264.72 167.521 264.84 167.858C266.337 172.062 267.74 171.893 269.947 171.632C270.908 171.518 272.025 171.386 273.366 171.588C274.23 171.719 274.808 173.388 275.278 174.749C275.416 175.15 275.546 175.524 275.671 175.825C276.098 176.856 276.363 175.684 276.676 174.298C277.082 172.499 277.567 170.339 278.595 172.17C278.827 172.582 279.054 172.941 279.263 173.257C280.081 172.787 281.084 172.275 282.062 171.781C282.492 171.563 282.914 171.344 283.314 171.137C283.353 170.957 283.395 170.779 283.432 170.603C283.629 169.668 283.806 168.82 284.021 168.341C284.349 167.611 284.805 167.536 285.308 167.858C285.519 167.532 285.842 167.193 286.152 166.873C286.921 166.078 287.593 165.384 286.184 165.192C284.5 164.963 285.126 164.531 286.054 163.892C286.698 163.449 287.486 162.906 287.754 162.259C288.063 161.512 289.151 160.884 290.078 160.351C291.383 159.6 292.365 159.035 290.392 158.584C288.199 158.082 286.768 157.459 287.365 156.773C287.636 156.462 287.527 156.152 287.412 155.831C287.26 155.405 287.101 154.955 287.809 154.449C288.393 154.031 289.958 153.563 291.342 153.149C291.774 153.02 292.186 152.896 292.547 152.78C292.496 152.507 292.434 152.234 292.355 151.963C292.093 151.948 291.802 151.932 291.503 151.916C290.003 151.838 288.163 151.741 287.22 151.469C285.728 151.038 286.559 150.417 287.444 149.761C288.132 149.25 288.85 148.719 288.52 148.241C288.292 147.915 287.593 147.59 286.902 147.271C285.876 146.798 284.867 146.333 285.422 145.865C285.63 145.69 286.618 145.447 287.601 145.206C287.606 145.205 287.611 145.203 287.617 145.202C287.683 145.186 287.75 145.167 287.817 145.151C286.943 144.264 285.988 143.389 284.99 142.516C284.724 142.461 284.461 142.403 284.201 142.347C282.932 142.073 281.697 141.809 279.981 141.739C278.122 141.663 276.978 141.07 275.773 140.447C274.983 140.039 274.168 139.616 273.107 139.316C272.488 139.141 273.495 138.794 274.532 138.436C275.499 138.103 276.49 137.761 276.216 137.541C276.076 137.431 275.63 137.346 275.156 137.255C274.74 137.174 274.299 137.089 274.022 136.98C273.765 136.878 274.294 136.524 274.968 136.073C275.384 135.794 275.856 135.477 276.236 135.158C275.511 134.51 274.811 133.858 274.155 133.202C273.233 133.155 272.041 133.158 270.52 133.226C269.429 133.275 268.128 133.356 266.799 133.442C264.989 133.558 263.118 133.678 261.62 133.721C260.45 133.754 259.974 133.692 260.447 133.56C260.667 133.498 261.088 133.42 261.467 133.352C261.898 133.273 262.281 133.205 262.272 133.175C262.261 133.153 261.948 133.165 261.569 133.179C260.964 133.2 260.182 133.224 260.144 133.136C260.005 132.805 260.207 132.389 260.407 131.981C260.631 131.526 260.849 131.08 260.58 130.776C260.28 130.435 261.372 129.777 262.461 129.119C263.219 128.659 263.975 128.2 264.266 127.846C264.551 127.5 263.879 127.248 263.222 127.006C262.433 126.716 261.67 126.435 262.645 126.013C262.845 125.927 264.087 125.71 265.636 125.436C266.736 125.241 267.993 125.018 269.15 124.796C269.106 124.405 269.111 124.007 269.162 123.606C268.991 123.611 268.817 123.616 268.64 123.621L268.628 123.625C264.617 123.756 259.13 123.932 262.304 122.946C263.111 122.696 264.622 122.425 265.982 122.18C267.317 121.94 268.513 121.727 268.754 121.584C269.026 121.421 268.179 121.362 267.262 121.297C265.974 121.206 264.537 121.104 265.817 120.692C265.905 120.664 266.004 120.633 266.1 120.602C267.012 120.305 268.362 119.863 271.109 119.267C271.756 118.35 272.529 117.419 273.382 116.479C274.805 114.911 276.453 113.317 278.097 111.724C278.907 110.948 282.62 109.867 288.626 108.701C294.64 107.533 302.409 106.378 310.476 105.461C318.543 104.544 326.369 103.93 332.492 103.718ZM170.885 314.857C170.885 314.87 170.885 314.883 170.885 314.896C170.898 314.896 170.911 314.896 170.924 314.896C170.925 314.883 170.924 314.87 170.924 314.857C170.911 314.857 170.898 314.857 170.885 314.857ZM317.617 314.896C317.631 314.896 317.646 314.896 317.66 314.896C317.66 314.883 317.66 314.87 317.66 314.857C317.646 314.857 317.631 314.857 317.617 314.857C317.617 314.87 317.617 314.883 317.617 314.896ZM245.352 220.612C245.299 220.875 245.244 221.167 245.187 221.468C244.901 222.979 244.548 224.832 244.002 225.787C243.136 227.297 242.199 226.474 241.211 225.598C240.441 224.917 239.639 224.207 238.816 224.554C238.256 224.791 237.654 225.498 237.057 226.199C236.17 227.242 235.293 228.267 234.58 227.719C234.313 227.512 234.018 226.526 233.724 225.543C233.723 225.537 233.722 225.53 233.72 225.524C233.701 225.457 233.677 225.393 233.658 225.327C232.107 226.226 230.562 227.203 229.021 228.225C228.903 228.495 228.78 228.764 228.66 229.026C228.076 230.308 227.51 231.556 227.215 233.283C226.896 235.154 225.801 236.317 224.648 237.543C223.893 238.346 223.113 239.175 222.508 240.248C222.155 240.876 221.686 239.871 221.205 238.835C220.757 237.868 220.296 236.875 219.906 237.162C219.71 237.306 219.524 237.756 219.325 238.234C219.149 238.655 218.961 239.099 218.752 239.38C218.556 239.641 218.031 239.117 217.358 238.45C216.942 238.038 216.47 237.572 215.984 237.197C214.841 237.941 213.694 238.66 212.545 239.333C212.37 240.262 212.25 241.458 212.203 242.985C212.17 244.081 212.174 245.388 212.176 246.723C212.178 248.541 212.18 250.421 212.094 251.926C212.026 253.102 211.87 253.583 211.701 253.112C211.622 252.892 211.543 252.471 211.469 252.091C211.385 251.655 211.309 251.266 211.257 251.282C211.221 251.296 211.208 251.61 211.191 251.989C211.163 252.597 211.125 253.382 210.975 253.422C210.415 253.571 209.747 253.376 209.094 253.182C208.369 252.967 207.66 252.76 207.131 253.037C206.539 253.347 205.57 252.264 204.599 251.184C203.922 250.43 203.244 249.678 202.691 249.393C202.15 249.114 201.667 249.799 201.2 250.465C200.638 251.265 200.096 252.038 199.504 251.066C199.384 250.866 199.153 249.623 198.864 248.07C198.829 247.885 198.79 247.697 198.754 247.505C198.086 247.94 197.313 248.475 196.991 249.185C196.774 249.664 196.317 250.056 195.79 250.406C195.537 252.299 195.144 253.256 194.42 251.478C194.391 251.406 194.37 251.325 194.341 251.243C193.023 251.941 192.1 252.482 193.953 253.277C196.076 254.186 197.426 255.135 196.756 255.884C196.45 256.225 196.525 256.617 196.603 257.023C196.706 257.56 196.813 258.124 196.053 258.64C195.425 259.066 193.816 259.417 192.394 259.728C191.951 259.825 191.529 259.921 191.158 260.011C191.178 260.349 191.208 260.689 191.256 261.028C191.514 261.082 191.801 261.14 192.096 261.2C193.579 261.502 195.398 261.872 196.304 262.331C197.738 263.059 196.841 263.7 195.888 264.373C195.146 264.897 194.371 265.44 194.648 266.065C194.837 266.492 195.493 266.978 196.143 267.459C197.109 268.174 198.06 268.881 197.458 269.372C197.232 269.555 196.22 269.714 195.217 269.87C195.212 269.871 195.206 269.874 195.201 269.874C195.133 269.885 195.065 269.895 194.997 269.906C195.766 271.1 196.613 272.296 197.506 273.491C197.764 273.594 198.02 273.697 198.271 273.801C199.416 274.272 200.534 274.721 202.052 275.042C202.128 275.046 202.199 275.069 202.271 275.093C202.312 275.101 202.352 275.112 202.393 275.12C204.172 275.456 205.231 276.286 206.319 277.174C207.666 276.602 209.569 276.071 211.332 277.771C212.246 278.653 213.309 280.394 214.323 282.054C215.774 284.429 217.127 286.641 217.809 285.961C219.008 284.768 220.383 285.781 221.598 286.676C222.756 287.53 223.769 288.273 224.346 286.896C225.034 285.248 225.624 285.921 226.497 286.915C227.103 287.605 227.847 288.446 228.856 288.785C230.023 289.176 230.848 290.332 231.549 291.313C232.536 292.694 233.278 293.732 234.384 291.824C235.613 289.7 236.901 288.349 237.913 289.02C238.373 289.324 238.9 289.251 239.448 289.173C240.174 289.07 240.941 288.961 241.639 289.723C242.213 290.351 242.686 291.961 243.107 293.383C243.238 293.825 243.366 294.248 243.488 294.619C243.945 294.599 244.404 294.569 244.862 294.521C244.936 294.263 245.012 293.976 245.093 293.681C245.501 292.198 246.003 290.378 246.624 289.472C247.607 288.038 248.47 288.935 249.38 289.888C250.089 290.63 250.827 291.406 251.673 291.129C252.249 290.939 252.906 290.283 253.557 289.633C254.523 288.667 255.477 287.714 256.14 288.317C256.389 288.544 256.6 289.555 256.811 290.559C256.812 290.565 256.815 290.57 256.815 290.575C256.83 290.643 256.844 290.711 256.859 290.779C258.473 290.01 260.088 289.163 261.703 288.27C261.843 288.011 261.987 287.756 262.127 287.504C262.811 286.274 263.475 285.078 263.909 283.382C264.379 281.542 265.561 280.469 266.806 279.341C267.622 278.603 268.466 277.84 269.154 276.82C269.556 276.225 269.939 277.264 270.332 278.336C270.698 279.336 271.074 280.364 271.486 280.111C271.692 279.983 271.916 279.55 272.153 279.09C272.362 278.685 272.582 278.257 272.813 277.994C273.028 277.751 273.506 278.315 274.12 279.035C274.499 279.48 274.932 279.984 275.384 280.397C276.58 279.75 277.776 279.129 278.972 278.552C279.222 277.641 279.441 276.458 279.612 274.939C279.735 273.85 279.838 272.545 279.946 271.213C280.092 269.401 280.243 267.527 280.452 266.034C280.615 264.868 280.81 264.403 280.939 264.887C280.999 265.113 281.042 265.539 281.084 265.924C281.132 266.365 281.177 266.76 281.229 266.749C281.267 266.739 281.307 266.424 281.355 266.046C281.432 265.442 281.532 264.664 281.685 264.636C282.253 264.533 282.898 264.783 283.53 265.029C284.233 265.302 284.921 265.567 285.469 265.335C286.083 265.074 286.96 266.236 287.836 267.393C288.426 268.171 289.02 268.94 289.532 269.289C289.583 269.253 289.633 269.213 289.685 269.175C290.375 268.678 291.215 268.065 291.554 267.236C291.945 266.277 293.101 265.598 294.082 265.021C295.463 264.21 296.502 263.598 294.593 262.689C292.47 261.678 291.119 260.623 291.79 259.791C292.095 259.412 292.021 258.977 291.943 258.526C291.84 257.93 291.732 257.301 292.492 256.728C293.12 256.255 294.729 255.864 296.151 255.519C296.594 255.411 297.016 255.308 297.388 255.208C297.367 254.832 297.337 254.454 297.29 254.078C297.031 254.017 296.745 253.952 296.449 253.885C294.967 253.55 293.147 253.139 292.241 252.629C290.807 251.82 291.704 251.107 292.657 250.359C293.399 249.777 294.174 249.173 293.898 248.478C293.708 248.004 293.053 247.462 292.402 246.927C291.436 246.133 290.483 245.348 291.087 244.803C291.314 244.599 292.325 244.423 293.329 244.249C293.334 244.249 293.339 244.25 293.344 244.249C293.412 244.238 293.481 244.226 293.548 244.214C292.78 242.887 291.932 241.56 291.04 240.233C290.781 240.118 290.526 239.998 290.274 239.883C289.045 239.32 287.848 238.775 286.152 238.418C284.313 238.032 283.24 237.059 282.113 236.035C281.728 235.686 281.338 235.331 280.908 234.991C280.691 234.868 280.47 234.725 280.252 234.547C280.209 234.512 280.167 234.472 280.122 234.433C279.952 234.322 279.778 234.21 279.592 234.107C279.404 234.002 279.386 233.903 279.475 233.801C278.665 232.925 277.77 231.705 276.907 230.526C275.263 228.279 273.73 226.184 273.103 226.918C272.002 228.206 270.544 227.309 269.256 226.517C268.028 225.762 266.952 225.104 266.488 226.525C265.935 228.223 265.292 227.602 264.337 226.682C263.675 226.044 262.862 225.268 261.825 225.013C260.627 224.719 259.709 223.633 258.927 222.712C257.827 221.417 257 220.446 256.05 222.441C254.995 224.658 253.819 226.108 252.752 225.524C252.266 225.257 251.744 225.373 251.202 225.496C250.484 225.659 249.728 225.829 248.968 225.127C248.342 224.548 247.734 222.987 247.197 221.605C247.03 221.174 246.871 220.76 246.718 220.399C246.262 220.458 245.806 220.526 245.352 220.612ZM198.232 244.831C198.062 245.138 198.063 245.403 198.389 245.624C198.336 245.357 198.286 245.092 198.232 244.831ZM170.885 206.283C170.885 206.297 170.885 206.31 170.885 206.323C170.9 206.323 170.914 206.323 170.928 206.323C170.927 206.31 170.926 206.297 170.924 206.283C170.911 206.284 170.898 206.283 170.885 206.283ZM317.613 194.225C317.614 194.237 317.612 194.249 317.613 194.26C317.629 194.26 317.644 194.261 317.66 194.26C317.662 194.246 317.666 194.232 317.668 194.217C317.65 194.219 317.631 194.223 317.613 194.225Z" fill="#A5B4FC"/>
</svg>
